<svg width="100" height="100" viewBox="0 0 100 100" fill="none" xmlns="http://www.w3.org/2000/svg">
<path d="M15.6254 65.2435L23.9691 59.985C25.579 62.957 27.0433 65.472 30.5558 65.472C33.9228 65.472 36.0457 64.1005 36.0457 58.7657V22.4853H46.292V58.9165C46.292 69.968 40.0713 74.9988 30.995 74.9988C22.7982 74.9988 18.0408 70.5788 15.6254 65.2435ZM51.8575 64.1L60.2003 59.07C62.3968 62.805 65.2513 65.5487 70.3008 65.5487C74.5468 65.5487 77.2538 63.338 77.2538 60.2892C77.2538 56.631 74.4725 55.335 69.7885 53.2015L67.2275 52.0573C59.8348 48.7808 54.9313 44.6648 54.9313 35.976C54.9313 27.9728 60.7863 21.875 69.9353 21.875C76.4493 21.875 81.1335 24.2381 84.4998 30.4117L76.5218 35.7475C74.7648 32.4702 72.8628 31.1745 69.935 31.1745C66.934 31.1745 65.031 33.1562 65.031 35.7475C65.031 38.9485 66.934 40.245 71.325 42.2267L73.8865 43.3698C82.5965 47.2573 87.5 51.2203 87.5 60.137C87.5 69.7415 80.2543 75 70.52 75C61.0058 75 54.858 70.274 51.8575 64.1Z" fill="#33A365"/>
</svg>
