<svg width="100" height="31" viewBox="0 0 100 31" fill="none" xmlns="http://www.w3.org/2000/svg">
<mask id="mask0_21_52" style="mask-type:luminance" maskUnits="userSpaceOnUse" x="0" y="3" width="100" height="25">
<path d="M100 3.03027H0V27.2727H100V3.03027Z" fill="white"/>
</mask>
<g mask="url(#mask0_21_52)">
<path d="M100.127 3.0403V6.87713H91.8803V27.0629H87.7568V6.87736H79.3386V3.0403H100.127ZM19.3277 27.0629L4.12355 8.16505V27.0532H0V3.03027H5.15408L24.363 26.8832L24.3632 6.87736L24.3615 3.0403H45.1494V6.87713H28.4865V13.0496H41.887V16.8867H28.4865V23.2261H45.1496V27.0629H19.3277ZM58.3648 16.8501L61.0671 20.2097L55.5299 27.0913H50.1184L58.3648 16.8501ZM55.5299 3.05032L62.5065 11.7147L69.4613 3.07689L74.8576 3.06874L65.2082 15.0699L74.8732 27.0729H69.4613L50.1338 3.05032H55.5299Z" fill="#33A365"/>
</g>
</svg>
