<svg width="100" height="115" viewBox="0 0 100 115" fill="none" xmlns="http://www.w3.org/2000/svg">
<g clip-path="url(#clip0_23_75)">
<path d="M98.1696 44.7545C96.4509 37.8572 93.192 32.6563 86.25 32.6563H77.2991V43.2366C77.2991 51.4509 70.3348 58.3705 62.3884 58.3705H38.5491C32.0312 58.3705 26.6295 63.9509 26.6295 70.4911V93.2143C26.6295 99.6875 32.2545 103.482 38.5491 105.335C46.0937 107.545 53.3482 107.946 62.3884 105.335C68.3929 103.594 74.308 100.089 74.308 93.2143V84.1295H50.4911V81.0937H86.25C93.192 81.0937 95.7589 76.25 98.1696 68.9955C100.67 61.5179 100.558 54.3304 98.1696 44.7545ZM63.8839 90.1786C66.3616 90.1786 68.3705 92.2098 68.3705 94.7098C68.3705 97.2321 66.3616 99.2634 63.8839 99.2634C61.4286 99.2634 59.3973 97.2098 59.3973 94.7098C59.4196 92.1875 61.4286 90.1786 63.8839 90.1786ZM37.4554 55.3795H61.2946C67.9241 55.3795 73.2143 49.9107 73.2143 43.2589V20.5134C73.2143 14.0402 67.7679 9.19644 61.2946 8.10269C53.3036 6.78572 44.6205 6.85269 37.4554 8.12501C27.3661 9.91072 25.5357 13.6384 25.5357 20.5357V29.6205H49.3973V32.6563H16.5848C9.64286 32.6563 3.57143 36.8304 1.67411 44.7545C-0.513393 53.8393 -0.602679 59.5089 1.67411 68.9955C3.37054 76.0491 7.41071 81.0937 14.3527 81.0937H22.5446V70.2009C22.5446 62.3214 29.3527 55.3795 37.4554 55.3795ZM35.9598 23.5491C33.4821 23.5491 31.4732 21.5179 31.4732 19.0179C31.4955 16.4955 33.4821 14.4643 35.9598 14.4643C38.4152 14.4643 40.4464 16.5179 40.4464 19.0179C40.4464 21.5179 38.4375 23.5491 35.9598 23.5491Z" fill="#33A365"/>
</g>
<defs>
<clipPath id="clip0_23_75">
<rect width="100" height="114.286" fill="white"/>
</clipPath>
</defs>
</svg>
