<svg width="100" height="100" viewBox="0 0 100 100" fill="none" xmlns="http://www.w3.org/2000/svg">
<path d="M78.125 36.2499L75.3125 35.3124C75.3125 34.6874 75.625 34.0624 75.625 33.4374C77.8125 23.1248 76.25 14.6873 71.5625 11.8748C66.875 9.37481 59.375 11.8748 51.875 18.4373C51.25 19.0623 50.3125 19.6873 49.6875 20.3123C49.0625 19.9998 48.75 19.3748 48.125 19.0623C40.625 12.1873 32.8125 9.37481 28.125 12.1873C23.4375 14.6873 22.1875 22.8123 24.0625 32.4999C24.375 33.4374 24.375 34.3749 24.6875 35.3124C23.4375 35.6249 22.5 35.9374 21.5625 36.2499C12.1875 39.3749 6.25 44.6874 6.25 49.6874C6.25 54.9999 12.5 60.6249 22.1875 63.7499C22.8125 64.0624 23.75 64.3749 24.6875 64.3749C24.375 65.3124 24.0625 66.5624 24.0625 67.4999C22.1875 77.1874 23.75 84.6874 28.125 87.4999C32.8125 90.3124 40.625 87.4999 48.4375 80.6249C49.0625 79.9999 49.6875 79.3749 50.3125 79.0624C50.9375 79.6874 51.875 80.6249 52.8125 81.2499C60.3125 87.8124 67.5 90.3124 72.1875 87.4999C76.875 84.6874 78.4375 76.5624 76.5625 66.5624C76.5625 65.9374 76.25 64.9999 75.9375 64.0624C76.5625 63.7499 77.1875 63.7499 77.5 63.4374C87.5 59.9999 94.0625 54.6874 94.0625 49.3749C93.75 44.6874 87.5 39.6874 78.125 36.2499ZM54.6875 21.5623C61.25 15.9373 67.1875 13.7498 70 15.3123C72.8125 16.8748 74.0625 23.7498 72.1875 32.8124C72.1875 33.4374 71.875 34.0624 71.875 34.6874C68.125 33.7499 64.0625 33.1249 60.3125 32.8124C58.125 29.6874 55.625 26.5624 52.8125 23.4373L54.6875 21.5623ZM32.1875 54.3749C33.125 55.9374 33.75 57.4999 34.6875 59.0624C35.625 60.6249 36.5625 62.1874 37.5 63.4374C34.6875 63.1249 32.1875 62.8124 29.375 62.1874C30 59.6874 30.9375 57.1874 32.1875 54.3749ZM32.1875 45.6249C30.9375 43.1249 30.3125 40.6249 29.375 38.1249C31.875 37.4999 34.6875 37.1874 37.1875 36.8749C36.25 38.4374 35.3125 39.6874 34.375 41.2499C33.75 42.4999 32.8125 44.0624 32.1875 45.6249ZM34.0625 49.9999C35.3125 47.4999 36.5625 45.3124 37.8125 42.8124C39.0625 40.6249 40.625 38.1249 42.1875 35.9374C44.6875 35.6249 47.5 35.6249 50.3125 35.6249C53.125 35.6249 55.625 35.6249 58.4375 35.9374C60 38.1249 61.25 40.3124 62.5 42.8124C63.75 44.9999 65 47.4999 66.25 49.9999C65 52.4999 63.75 54.6874 62.5 57.1874C61.25 59.3749 59.6875 61.8749 58.4375 64.0624C55.9375 64.3749 53.125 64.3749 50.3125 64.3749C47.5 64.3749 45 64.3749 42.5 64.0624C40.9375 61.8749 39.6875 59.6874 38.125 57.1874C36.5625 54.6874 35.3125 52.4999 34.0625 49.9999ZM65.3125 59.0624C66.25 57.4999 67.1875 55.9374 67.8125 54.3749C69.0625 56.8749 70 59.3749 70.625 62.1874C67.8125 62.8124 65.3125 63.1249 62.5 63.4374C63.75 61.8749 64.6875 60.3124 65.3125 59.0624ZM67.8125 45.6249C66.875 44.0624 66.25 42.4999 65.3125 40.9374C64.375 39.3749 63.4375 38.1249 62.8125 36.5624C65.625 36.8749 68.125 37.4999 70.9375 37.8124C70 40.6249 69.0625 43.1249 67.8125 45.6249ZM50 25.9374C51.875 27.8124 53.4375 29.9999 55 32.1874C51.5625 31.8749 48.125 31.8749 44.6875 32.1874C46.5625 29.9999 48.4375 27.8124 50 25.9374ZM30 15.3123C32.8125 13.7498 39.375 15.9373 46.25 22.1873L47.5 23.4373C44.6875 26.2499 42.1875 29.3749 40 32.8124C35.9375 33.1249 32.1875 33.7499 28.4375 34.6874C28.125 33.7499 28.125 32.8124 27.8125 31.8749C25.9375 23.4373 27.1875 16.8748 30 15.3123ZM25.625 61.2499C25 60.9374 24.0625 60.9374 23.4375 60.6249C19.0625 59.0624 15.625 57.1874 13.125 55.3124C10.9375 53.4374 10 51.5624 10 49.9999C10 46.8749 14.6875 42.8124 22.8125 39.9999C23.75 39.6874 24.6875 39.3749 25.9375 39.0624C26.875 42.8124 28.125 46.5624 30 49.9999C28.125 53.7499 26.875 57.4999 25.625 61.2499ZM45.9375 78.4374C42.5 81.5624 39.0625 83.4374 36.25 84.6874C33.4375 85.6249 31.5625 85.6249 30 84.9999C27.1875 83.4374 25.9375 77.1874 27.5 69.0624C27.8125 67.8124 28.125 66.8749 28.125 65.6249C31.875 66.5624 35.9375 67.1874 40 67.1874C42.1875 70.3124 44.6875 73.4374 47.5 76.5624C46.875 77.1874 46.5625 77.8124 45.9375 78.4374ZM50 74.0624C48.125 72.1874 46.5625 69.9999 44.6875 67.8124H55C53.75 69.9999 51.875 72.1874 50 74.0624ZM72.8125 79.3749C72.1875 82.1874 71.25 84.0624 70 84.6874C67.1875 86.2499 61.25 84.0624 55 78.7499C54.375 78.1249 53.4375 77.4999 52.8125 76.8749C55.3125 74.0624 57.8125 70.9374 60 67.4999C64.0625 67.1874 67.8125 66.5624 71.875 65.6249C72.1875 66.2499 72.1875 67.1874 72.5 67.8124C73.4375 72.1874 73.4375 76.2499 72.8125 79.3749ZM75.9375 60.6249C75.3125 60.6249 75 60.9374 74.375 60.9374C73.125 57.1874 71.5625 53.4374 70 49.6874C71.5625 46.2499 73.125 42.4999 74.375 38.7499C75.3125 39.0624 76.25 39.3749 76.875 39.6874C85 42.4999 90 46.5624 90 49.6874C90 53.4374 84.6875 57.8124 75.9375 60.6249Z" fill="#33A365"/>
<path d="M50 57.8125C51.5625 57.8125 53.125 57.5 54.375 56.5625C55.625 55.625 56.5625 54.375 57.1875 53.125C57.8125 51.5625 57.8125 50 57.5 48.4375C57.1875 46.875 56.5625 45.625 55.3125 44.375C54.375 43.125 52.8125 42.5 51.25 42.1875C49.6875 41.875 48.125 42.1875 46.5625 42.5C45 43.125 43.75 44.0625 43.125 45.3125C42.1875 46.5625 41.875 48.125 41.875 49.6875C41.875 50.625 42.1875 51.875 42.5 52.8125C42.8125 53.75 43.4375 54.6875 44.0625 55.3125C44.6875 55.9375 45.625 56.5625 46.5625 56.875C47.8125 57.5 49.0625 57.8125 50 57.8125Z" fill="#33A365"/>
</svg>
