<svg width="100" height="100" viewBox="0 0 100 100" fill="none" xmlns="http://www.w3.org/2000/svg">
<g clip-path="url(#clip0_21_42)">
<mask id="mask0_21_42" style="mask-type:luminance" maskUnits="userSpaceOnUse" x="0" y="0" width="100" height="100">
<path d="M100 0H0V100H100V0Z" fill="white"/>
</mask>
<g mask="url(#mask0_21_42)">
<mask id="mask1_21_42" style="mask-type:luminance" maskUnits="userSpaceOnUse" x="0" y="0" width="100" height="100">
<path d="M100 0H0V100H100V0Z" fill="white"/>
</mask>
<g mask="url(#mask1_21_42)">
<path d="M50.0025 20C36.669 20 28.3358 26.6667 25.0025 40C30.0025 33.3333 35.8357 30.8332 42.5025 32.5C46.3065 33.45 49.0233 36.2083 52.0358 39.2668C56.94 44.2418 62.6107 50 75.0025 50C88.3357 50 96.669 43.3333 100.002 30C95.0025 36.6667 89.169 39.1668 82.5025 37.5C78.6982 36.55 75.9815 33.7917 72.969 30.7332C68.069 25.7582 62.3982 20 50.0025 20ZM25.0025 50C11.6691 50 3.33578 56.6667 0.00244141 70C5.00245 63.3333 10.8358 60.8332 17.5024 62.5C21.3066 63.45 24.0233 66.2082 27.0357 69.2667C31.94 74.2417 37.6107 80 50.0025 80C63.3357 80 71.669 73.3333 75.0025 60C70.0025 66.6667 64.169 69.1668 57.5025 67.5C53.6982 66.55 50.9815 63.7918 47.969 60.7333C43.069 55.7583 37.3983 50 25.0025 50Z" fill="#33A365"/>
</g>
</g>
</g>
<defs>
<clipPath id="clip0_21_42">
<rect width="100" height="100" fill="white"/>
</clipPath>
</defs>
</svg>
