<svg width="100" height="100" viewBox="0 0 100 100" fill="none" xmlns="http://www.w3.org/2000/svg">
<path d="M74.4595 25.7598C77.1195 26.3786 79.537 27.7716 81.4063 29.7628C82.436 30.8406 83.3303 32.0401 84.0688 33.3348C84.1033 33.4753 79.275 36.7191 76.347 38.5286C76.2408 38.6003 75.8188 38.1411 75.3408 37.4348C74.8058 36.5153 74.0465 35.7463 73.1338 35.1998C72.2213 34.6533 71.185 34.3471 70.122 34.3098C66.7563 34.0786 64.5875 35.8411 64.6033 38.7878C64.574 39.5118 64.7393 40.2303 65.0813 40.8691C65.822 42.4003 67.197 43.3191 71.5158 45.1911C79.4658 48.6128 82.8783 50.8691 84.9845 54.0753C86.175 56.1011 86.9083 58.3628 87.1328 60.7018C87.3573 63.0408 87.0678 65.4006 86.2845 67.6161C85.2078 70.0453 83.5005 72.1426 81.3398 73.6893C79.179 75.2363 76.6438 76.1766 73.997 76.4128C71.1835 76.7356 68.3408 76.7061 65.5345 76.3253C61.236 75.6191 57.2763 73.5561 54.2345 70.4378C53.085 69.1436 52.112 67.7031 51.3408 66.1536C51.665 65.9121 52.0065 65.6948 52.3625 65.5036C52.8563 65.2223 54.725 64.1473 56.4875 63.1253L59.6875 61.2503L60.3563 62.2253C61.4828 63.8361 62.9165 65.2083 64.575 66.2628C66.25 67.1816 68.1475 67.6171 70.0558 67.5206C71.9638 67.4238 73.8075 66.7991 75.3813 65.7161C76.193 64.9248 76.7005 63.8731 76.8148 62.7451C76.929 61.6173 76.643 60.4853 76.0063 59.5473C75.1438 58.3128 73.3813 57.2753 68.372 55.1036C64.444 53.7791 60.8663 51.5836 57.9063 48.6816C56.4968 47.0753 55.4558 45.1798 54.8563 43.1286C54.413 40.7916 54.3478 38.3986 54.6625 36.0411C55.2505 33.3281 56.6585 30.8613 58.6955 28.9753C60.7323 27.0893 63.2998 25.8751 66.05 25.4973C68.8505 25.1626 71.6853 25.2511 74.4595 25.7598ZM48.3875 30.3941L48.422 34.9378H33.9533V76.0253H23.7501V34.9473H9.2813V30.4848C9.24283 28.9566 9.28455 27.4273 9.4063 25.9036C9.45943 25.8316 18.2563 25.7973 28.922 25.8161L48.3313 25.8691L48.3875 30.3941Z" fill="#33A365"/>
</svg>
